<?xml version="1.0" encoding="UTF-8"?>
<svg width="204px" height="174px" viewBox="0 0 204 174" version="1.1" xmlns="http://www.w3.org/2000/svg" xmlns:xlink="http://www.w3.org/1999/xlink">
    <!-- Generator: Sketch 56.3 (81716) - https://sketch.com -->
    <title>Group 3</title>
    <desc>Created with Sketch.</desc>
    <g id="VD" stroke="none" stroke-width="1" fill="none" fill-rule="evenodd">
        <g id="Registreren-3" transform="translate(-76.000000, 0.000000)">
            <g id="Group-3" transform="translate(74.000000, -76.000000)">
                <path d="M56.5593256,133.003466 C54.626329,133.003466 53.0593256,130.988748 53.0593256,128.503466 C53.0593256,126.018185 54.626329,124.003466 56.5593256,124.003466 C58.4923222,124.003466 60.0593256,126.018185 60.0593256,128.503466 C60.0593256,130.988748 58.4923222,133.003466 56.5593256,133.003466 Z M76.5593256,144.003466 C74.626329,144.003466 73.0593256,141.988748 73.0593256,139.503466 C73.0593256,137.018185 74.626329,135.003466 76.5593256,135.003466 C78.4923222,135.003466 80.0593256,137.018185 80.0593256,139.503466 C80.0593256,141.988748 78.4923222,144.003466 76.5593256,144.003466 Z M165.559326,201.003466 C163.626329,201.003466 162.059326,198.988748 162.059326,196.503466 C162.059326,194.018185 163.626329,192.003466 165.559326,192.003466 C167.492322,192.003466 169.059326,194.018185 169.059326,196.503466 C169.059326,198.988748 167.492322,201.003466 165.559326,201.003466 Z M41.5593256,201.003466 C39.626329,201.003466 38.0593256,198.988748 38.0593256,196.503466 C38.0593256,194.018185 39.626329,192.003466 41.5593256,192.003466 C43.4923222,192.003466 45.0593256,194.018185 45.0593256,196.503466 C45.0593256,198.988748 43.4923222,201.003466 41.5593256,201.003466 Z M177.559326,242.003466 C175.626329,242.003466 174.059326,239.988748 174.059326,237.503466 C174.059326,235.018185 175.626329,233.003466 177.559326,233.003466 C179.492322,233.003466 181.059326,235.018185 181.059326,237.503466 C181.059326,239.988748 179.492322,242.003466 177.559326,242.003466 Z M183.559326,164.003466 C181.626329,164.003466 180.059326,161.988748 180.059326,159.503466 C180.059326,157.018185 181.626329,155.003466 183.559326,155.003466 C185.492322,155.003466 187.059326,157.018185 187.059326,159.503466 C187.059326,161.988748 185.492322,164.003466 183.559326,164.003466 Z M147.559326,94.0034663 C145.626329,94.0034663 144.059326,91.9887476 144.059326,89.5034663 C144.059326,87.0181849 145.626329,85.0034663 147.559326,85.0034663 C149.492322,85.0034663 151.059326,87.0181849 151.059326,89.5034663 C151.059326,91.9887476 149.492322,94.0034663 147.559326,94.0034663 Z" id="Combined-Shape" fill="#F17057" transform="translate(112.559326, 163.503466) rotate(-20.000000) translate(-112.559326, -163.503466) "></path>
                <path d="M63.5,158.556972 C61.5670034,158.556972 60,156.542254 60,154.056972 C60,151.571691 61.5670034,149.556972 63.5,149.556972 C65.4329966,149.556972 67,151.571691 67,154.056972 C67,156.542254 65.4329966,158.556972 63.5,158.556972 Z M124.648363,107.477348 C122.715366,107.477348 121.148363,105.462629 121.148363,102.977348 C121.148363,100.492067 122.715366,98.4773479 124.648363,98.4773479 C126.581359,98.4773479 128.148363,100.492067 128.148363,102.977348 C128.148363,105.462629 126.581359,107.477348 124.648363,107.477348 Z M70.5,224.556972 C68.5670034,224.556972 67,222.542254 67,220.056972 C67,217.571691 68.5670034,215.556972 70.5,215.556972 C72.4329966,215.556972 74,217.571691 74,220.056972 C74,222.542254 72.4329966,224.556972 70.5,224.556972 Z M128.633074,251.933184 C126.700077,251.933184 125.133074,249.918465 125.133074,247.433184 C125.133074,244.947903 126.700077,242.933184 128.633074,242.933184 C130.56607,242.933184 132.133074,244.947903 132.133074,247.433184 C132.133074,249.918465 130.56607,251.933184 128.633074,251.933184 Z M149.5,126.556972 C147.567003,126.556972 146,124.542254 146,122.056972 C146,119.571691 147.567003,117.556972 149.5,117.556972 C151.432997,117.556972 153,119.571691 153,122.056972 C153,124.542254 151.432997,126.556972 149.5,126.556972 Z M195.5,182.556972 C193.567003,182.556972 192,180.542254 192,178.056972 C192,175.571691 193.567003,173.556972 195.5,173.556972 C197.432997,173.556972 199,175.571691 199,178.056972 C199,180.542254 197.432997,182.556972 195.5,182.556972 Z" id="Combined-Shape" fill="#F4BF63" transform="translate(129.500000, 175.205266) rotate(88.000000) translate(-129.500000, -175.205266) "></path>
                <path d="M63.5,158.556972 C61.5670034,158.556972 60,156.542254 60,154.056972 C60,151.571691 61.5670034,149.556972 63.5,149.556972 C65.4329966,149.556972 67,151.571691 67,154.056972 C67,156.542254 65.4329966,158.556972 63.5,158.556972 Z M124.648363,107.477348 C122.715366,107.477348 121.148363,105.462629 121.148363,102.977348 C121.148363,100.492067 122.715366,98.4773479 124.648363,98.4773479 C126.581359,98.4773479 128.148363,100.492067 128.148363,102.977348 C128.148363,105.462629 126.581359,107.477348 124.648363,107.477348 Z M70.5,224.556972 C68.5670034,224.556972 67,222.542254 67,220.056972 C67,217.571691 68.5670034,215.556972 70.5,215.556972 C72.4329966,215.556972 74,217.571691 74,220.056972 C74,222.542254 72.4329966,224.556972 70.5,224.556972 Z M128.633074,251.933184 C126.700077,251.933184 125.133074,249.918465 125.133074,247.433184 C125.133074,244.947903 126.700077,242.933184 128.633074,242.933184 C130.56607,242.933184 132.133074,244.947903 132.133074,247.433184 C132.133074,249.918465 130.56607,251.933184 128.633074,251.933184 Z M149.5,126.556972 C147.567003,126.556972 146,124.542254 146,122.056972 C146,119.571691 147.567003,117.556972 149.5,117.556972 C151.432997,117.556972 153,119.571691 153,122.056972 C153,124.542254 151.432997,126.556972 149.5,126.556972 Z M195.5,182.556972 C193.567003,182.556972 192,180.542254 192,178.056972 C192,175.571691 193.567003,173.556972 195.5,173.556972 C197.432997,173.556972 199,175.571691 199,178.056972 C199,180.542254 197.432997,182.556972 195.5,182.556972 Z" id="Combined-Shape" fill="#F4BF63" transform="translate(129.500000, 175.205266) rotate(88.000000) translate(-129.500000, -175.205266) "></path>
                <path d="M13.5,128.556972 C11.5670034,128.556972 10,126.542254 10,124.056972 C10,121.571691 11.5670034,119.556972 13.5,119.556972 C15.4329966,119.556972 17,121.571691 17,124.056972 C17,126.542254 15.4329966,128.556972 13.5,128.556972 Z M74.6483628,77.4773479 C72.7153662,77.4773479 71.1483628,75.4626293 71.1483628,72.9773479 C71.1483628,70.4920665 72.7153662,68.4773479 74.6483628,68.4773479 C76.5813595,68.4773479 78.1483628,70.4920665 78.1483628,72.9773479 C78.1483628,75.4626293 76.5813595,77.4773479 74.6483628,77.4773479 Z M20.5,194.556972 C18.5670034,194.556972 17,192.542254 17,190.056972 C17,187.571691 18.5670034,185.556972 20.5,185.556972 C22.4329966,185.556972 24,187.571691 24,190.056972 C24,192.542254 22.4329966,194.556972 20.5,194.556972 Z M78.6330737,221.933184 C76.7000771,221.933184 75.1330737,219.918465 75.1330737,217.433184 C75.1330737,214.947903 76.7000771,212.933184 78.6330737,212.933184 C80.5660703,212.933184 82.1330737,214.947903 82.1330737,217.433184 C82.1330737,219.918465 80.5660703,221.933184 78.6330737,221.933184 Z M99.5,96.5569722 C97.5670034,96.5569722 96,94.5422536 96,92.0569722 C96,89.5716909 97.5670034,87.5569722 99.5,87.5569722 C101.432997,87.5569722 103,89.5716909 103,92.0569722 C103,94.5422536 101.432997,96.5569722 99.5,96.5569722 Z M145.5,152.556972 C143.567003,152.556972 142,150.542254 142,148.056972 C142,145.571691 143.567003,143.556972 145.5,143.556972 C147.432997,143.556972 149,145.571691 149,148.056972 C149,150.542254 147.432997,152.556972 145.5,152.556972 Z" id="Combined-Shape" fill="#F4BF63" transform="translate(79.500000, 145.205266) rotate(88.000000) translate(-79.500000, -145.205266) "></path>
                <path d="M104.965854,97 C103.032857,97 101.465854,94.9852814 101.465854,92.5 C101.465854,90.0147186 103.032857,88 104.965854,88 C106.89885,88 108.465854,90.0147186 108.465854,92.5 C108.465854,94.9852814 106.89885,97 104.965854,97 Z M186.965854,197 C185.032857,197 183.465854,194.985281 183.465854,192.5 C183.465854,190.014719 185.032857,188 186.965854,188 C188.89885,188 190.465854,190.014719 190.465854,192.5 C190.465854,194.985281 188.89885,197 186.965854,197 Z M79.9658539,191 C78.0328572,191 76.4658539,188.985281 76.4658539,186.5 C76.4658539,184.014719 78.0328572,182 79.9658539,182 C81.8988505,182 83.4658539,184.014719 83.4658539,186.5 C83.4658539,188.985281 81.8988505,191 79.9658539,191 Z M81.9658539,245 C80.0328572,245 78.4658539,242.985281 78.4658539,240.5 C78.4658539,238.014719 80.0328572,236 81.9658539,236 C83.8988505,236 85.4658539,238.014719 85.4658539,240.5 C85.4658539,242.985281 83.8988505,245 81.9658539,245 Z M155.965854,245 C154.032857,245 152.465854,242.985281 152.465854,240.5 C152.465854,238.014719 154.032857,236 155.965854,236 C157.89885,236 159.465854,238.014719 159.465854,240.5 C159.465854,242.985281 157.89885,245 155.965854,245 Z M176.965854,123 C175.032857,123 173.465854,120.985281 173.465854,118.5 C173.465854,116.014719 175.032857,114 176.965854,114 C178.89885,114 180.465854,116.014719 180.465854,118.5 C180.465854,120.985281 178.89885,123 176.965854,123 Z M55.9658539,199 C54.0328572,199 52.4658539,196.985281 52.4658539,194.5 C52.4658539,192.014719 54.0328572,190 55.9658539,190 C57.8988505,190 59.4658539,192.014719 59.4658539,194.5 C59.4658539,196.985281 57.8988505,199 55.9658539,199 Z" id="Combined-Shape" fill="#41C98E" transform="translate(121.465854, 166.500000) rotate(-7.000000) translate(-121.465854, -166.500000) "></path>
                <path d="M104.965854,17 C103.032857,17 101.465854,14.9852814 101.465854,12.5 C101.465854,10.0147186 103.032857,8 104.965854,8 C106.89885,8 108.465854,10.0147186 108.465854,12.5 C108.465854,14.9852814 106.89885,17 104.965854,17 Z M186.965854,117 C185.032857,117 183.465854,114.985281 183.465854,112.5 C183.465854,110.014719 185.032857,108 186.965854,108 C188.89885,108 190.465854,110.014719 190.465854,112.5 C190.465854,114.985281 188.89885,117 186.965854,117 Z M79.9658539,111 C78.0328572,111 76.4658539,108.985281 76.4658539,106.5 C76.4658539,104.014719 78.0328572,102 79.9658539,102 C81.8988505,102 83.4658539,104.014719 83.4658539,106.5 C83.4658539,108.985281 81.8988505,111 79.9658539,111 Z M81.9658539,165 C80.0328572,165 78.4658539,162.985281 78.4658539,160.5 C78.4658539,158.014719 80.0328572,156 81.9658539,156 C83.8988505,156 85.4658539,158.014719 85.4658539,160.5 C85.4658539,162.985281 83.8988505,165 81.9658539,165 Z M155.965854,165 C154.032857,165 152.465854,162.985281 152.465854,160.5 C152.465854,158.014719 154.032857,156 155.965854,156 C157.89885,156 159.465854,158.014719 159.465854,160.5 C159.465854,162.985281 157.89885,165 155.965854,165 Z M176.965854,43 C175.032857,43 173.465854,40.9852814 173.465854,38.5 C173.465854,36.0147186 175.032857,34 176.965854,34 C178.89885,34 180.465854,36.0147186 180.465854,38.5 C180.465854,40.9852814 178.89885,43 176.965854,43 Z M55.9658539,119 C54.0328572,119 52.4658539,116.985281 52.4658539,114.5 C52.4658539,112.014719 54.0328572,110 55.9658539,110 C57.8988505,110 59.4658539,112.014719 59.4658539,114.5 C59.4658539,116.985281 57.8988505,119 55.9658539,119 Z" id="Combined-Shape" fill="#41C98E" transform="translate(121.465854, 86.500000) rotate(-7.000000) translate(-121.465854, -86.500000) "></path>
            </g>
        </g>
    </g>
</svg>