<svg  xmlns:xlink="http://www.w3.org/1999/xlink" class="logo" version="1.1" viewBox="654 217 135 53" xmlns="http://www.w3.org/2000/svg">
    <g fill="none" fill-rule="evenodd" id="Group" stroke="none" stroke-width="1" transform="translate(654.000000, 217.000000)">
      <rect fill="#41C98E" height="7.92119565" id="Rectangle-1-Copy-2" width="55.8376963" x="48.7696335" y="0"></rect>
      <path
        d="M33.9267016,25.2038043 L44.5287958,25.2038043 L44.5287958,42.8091174 C39.6357755,48.3548784 33.5677321,51.1277174 24.91085,51.1277174 C17.665416,51.1277174 10.7888043,47.7562679 6.33537253,42.8091165 C1.88194075,37.861965 3.14732715e-16,31.3320422 0,25.3472285 C3.1121944e-16,19.3624148 2.13300314,12.533203 7.14364416,7.5611413 C12.1542852,2.58907964 17.865371,0 24.946136,0 C32.026901,0 38.1783704,2.36647462 44.5287958,7.5611413 L37.576866,15.7889457 C36.8296594,14.7828875 32.9532899,10.0815217 25.4450262,10.0815217 C21.8783809,10.0815217 18.2103674,11.3745765 15.3404228,14.2669777 C12.4704782,17.159379 10.6840603,20.6142076 10.6840603,25.3472278 C10.6840603,30.080248 12.4723009,33.9613176 15.1326604,36.5585261 C17.7930199,39.1557345 21.5855464,41.016317 24.6285618,41.0163156 C28.6829444,41.0163138 31.6151826,40.2752983 33.9267016,38.8858696 L33.9267016,25.2038043 Z"
        fill="#2E2957"
        id="Path-Copy"
      ></path>
      <polygon
        fill="#2E2957"
        id="Path-Copy-2"
        points="59.3717277 51.1277174 48.7696335 51.1277174 48.7696335 12.2418478 59.3717277 12.2418478"
      ></polygon>
      <path
        d="M119.451286,20.1630435 L119.451286,36.7255435 C119.451286,36.7255435 119.986395,41.7162815 124.752333,41.7663043 C127.096877,41.7909124 128.639767,40.1993295 129.235154,39.3683174 C129.701529,40.1993295 134.94546,44.5097849 134.94546,44.5097849 C132.152575,48.1120864 127.290001,50.9475144 122.342034,51.1277174 C118.495492,51.2678069 115.347945,49.8632256 112.731258,47.334204 C110.11457,44.8051824 108.806246,41.3588223 108.849191,36.7255435 L108.849191,0 L119.451286,0 L119.451286,12.2418478 L128.639767,12.2418478 L128.639767,20.1630435 L119.451286,20.1630435 Z"
        fill="#2E2957"
        id="Path-Copy-4"
      ></path>
      <polygon
        fill="#2E2957"
        id="Givt"
        points="79.091623 51.1277174 64.0366492 12.2418478 75.6282733 12.2418478 84.5340314 36.7255435 94.0052356 12.2418478 105.031414 12.2418478 89.9764398 51.1277174"
      ></polygon>
    </g>
  </svg>
  