<?xml version="1.0" encoding="UTF-8"?>
<svg width="17px" height="13px" viewBox="0 0 17 13" version="1.1" xmlns="http://www.w3.org/2000/svg" xmlns:xlink="http://www.w3.org/1999/xlink">
    <!-- Generator: Sketch 57.1 (83088) - https://sketch.com -->
    <title>Combined Shape</title>
    <desc>Created with Sketch.</desc>
    <g id="VD" stroke="none" stroke-width="1" fill="none" fill-rule="evenodd">
        <g id="Dashboard-Eerstekeer_desktop" transform="translate(-21.000000, -133.000000)" fill="#312E41">
            <g id="Group-6">
                <g id="Group-5">
                    <g id="Group-2" transform="translate(0.000000, 115.000000)">
                        <path d="M27,25 C28.1045695,25 29,25.8954305 29,27 L29,29 C29,30.1045695 28.1045695,31 27,31 L23,31 C21.8954305,31 21,30.1045695 21,29 L21,27 C21,25.8954305 21.8954305,25 23,25 L27,25 Z M36,25 C37.1045695,25 38,25.8954305 38,27 L38,29 C38,30.1045695 37.1045695,31 36,31 L32,31 C30.8954305,31 30,30.1045695 30,29 L30,27 C30,25.8954305 30.8954305,25 32,25 L36,25 Z M27,18 C28.1045695,18 29,18.8954305 29,20 L29,22 C29,23.1045695 28.1045695,24 27,24 L23,24 C21.8954305,24 21,23.1045695 21,22 L21,20 C21,18.8954305 21.8954305,18 23,18 L27,18 Z M36,18 C37.1045695,18 38,18.8954305 38,20 L38,22 C38,23.1045695 37.1045695,24 36,24 L32,24 C30.8954305,24 30,23.1045695 30,22 L30,20 C30,18.8954305 30.8954305,18 32,18 L36,18 Z" id="Combined-Shape"></path>
                    </g>
                </g>
            </g>
        </g>
    </g>
</svg>